<svg xmlns="http://www.w3.org/2000/svg" width="40" height="40" viewBox="0 0 40 40">
  <path id="Icon_Food_SVG" data-name="Icon Food SVG" d="M40.632,13.5,37.353,42.825H26.277l-3.266-29.47H36.533L39.2,2.825l1.515.521L38.156,13.479l2.476.022ZM21.445,30.466s.414-3.8-5.329-3.8H6.969c-5.735,0-5.329,3.8-5.329,3.8H21.445ZM1.64,39.022s-.406,3.8,5.329,3.8h9.148c5.743,0,5.329-3.8,5.329-3.8H1.64Zm18.946-1.9c.94,0,1.7-1.059,1.7-2.376s-.759-2.378-1.7-2.378H2.42c-.936,0-1.7,1.053-1.7,2.378s.764,2.376,1.7,2.376H20.586Z" transform="translate(-0.72 -2.825)" fill="#cc293e"/>
</svg>
